PathFileType	3	(X/Y/Z)	F:\ViconData\AntennenMessung\Messung1\Session1\ID23.trc
DataRate	CameraRate	NumFrames	NumMarkers	Units	OrigDataRate	OrigDataStartFrame	OrigNumFrames
120.0	120.0	6	70	mm	120.0	876	1000	
Frame#	Time	Ashort			Along			Atop			A4			Bshort			Blong			Btop			B4			Cshort			Clong			Ctop			C4			Dshort			Dlong			Dtop			D4			Eshort			Elong			Etop			E4			Fshort			Flong			Ftop			F4			Gshort			Glong			Gtop			G4			Hshort			Hlong			Htop			H4			I1			I2			I3			I4			I5			WandAshort			WandAlong			WandAtop			WandA4			WandA15			WandBshort			WandB4			WandB5			WandBtop			WandBlong			WandCshort			WandClong			WandCtop			WandC4			WandC5			Acenter			Aantenna			Bcenter			Bantenna			Ccenter			Cantenna			Dcenter			Dantenna			Ecenter			Eantenna			Fcenter			Fantenna			Gcenter			Gantenna			Hcenter			Hantenna			Icenter			Iantenna			
		X1	Y1	Z1	X2	Y2	Z2	X3	Y3	Z3	X4	Y4	Z4	X5	Y5	Z5	X6	Y6	Z6	X7	Y7	Z7	X8	Y8	Z8	X9	Y9	Z9	X10	Y10	Z10	X11	Y11	Z11	X12	Y12	Z12	X13	Y13	Z13	X14	Y14	Z14	X15	Y15	Z15	X16	Y16	Z16	X17	Y17	Z17	X18	Y18	Z18	X19	Y19	Z19	X20	Y20	Z20	X21	Y21	Z21	X22	Y22	Z22	X23	Y23	Z23	X24	Y24	Z24	X25	Y25	Z25	X26	Y26	Z26	X27	Y27	Z27	X28	Y28	Z28	X29	Y29	Z29	X30	Y30	Z30	X31	Y31	Z31	X32	Y32	Z32	X33	Y33	Z33	X34	Y34	Z34	X35	Y35	Z35	X36	Y36	Z36	X37	Y37	Z37	X38	Y38	Z38	X39	Y39	Z39	X40	Y40	Z40	X41	Y41	Z41	X42	Y42	Z42	X43	Y43	Z43	X44	Y44	Z44	X45	Y45	Z45	X46	Y46	Z46	X47	Y47	Z47	X48	Y48	Z48	X49	Y49	Z49	X50	Y50	Z50	X51	Y51	Z51	X52	Y52	Z52	X53	Y53	Z53	X54	Y54	Z54	X55	Y55	Z55	X56	Y56	Z56	X57	Y57	Z57	X58	Y58	Z58	X59	Y59	Z59	X60	Y60	Z60	X61	Y61	Z61	X62	Y62	Z62	X63	Y63	Z63	X64	Y64	Z64	X65	Y65	Z65	X66	Y66	Z66	X67	Y67	Z67	X68	Y68	Z68	X69	Y69	Z69	X70	Y70	Z70	
876	7.2916667	-1038.1792	214.63795	-1644.0232	-1109.4542	204.36256	-1599.3888	-1064.0045	172.83873	-1625.4388	-1054.1108	262.33777	-1634.8119	-1352.4845	235.18141	1003.5477	-1281.2705	227.44098	1052.0864	-1322.4607	194.05991	1020.8812	-1284.4104	287.93454	1052.6317	814.04108	187.78429	1209.3939	892.30023	178.78493	1178.792	844.51996	145.35944	1198.4302	861.02887	292.54205	1168.4899	1115.8008	209.73326	-1401.6417	1056.38	194.02165	-1460.1204	1094.9802	162.25189	-1423.9226	1069.666	239.54669	-1426.3291	-1204.6943	1686.115	-1562.875	-1129.1351	1688.3868	-1605.926	-1173.1653	1724.3313	-1581.8387	-1134.0116	1581.0739	-1603.8522	-1239.5857	1699.1101	1119.5713	-1309.3772	1698.8885	1072.0388	-1270.4371	1736.2969	1096.9626	-1245.5369	1592.7229	1110.7228	988.87213	1664.1685	1162.1104	957.37842	1700.5042	1183.8455	921.91187	1662.288	1214.9292	939.88568	1659.4297	1159.7377	999.08789	1668.4629	-1579.4022	1058.9448	1670.2043	-1518.6622	1025.0035	1708.1012	-1551.1249	1059.3251	1672.1981	-1585.4066	-231.38213	1638.8882	-185.80673	-228.89778	1638.3535	-270.23737	-229.70314	1675.4807	-223.68716	-196.24974	1638.5073	-221.49826	-278.78598	1639.9611	-223.88269																																														-1068.9584	210.20064	-1624.7483	-1074.0839	248.85579	-1624.0339	-1321.1187	231.77219	1024.9263	-1319.7397	270.52548	1029.083	848.03784	183.87483	1196.1	851.57886	222.64287	1193.7546	1088.6709	202.55978	-1428.3413	1082.6747	240.86661	-1432.5405	-1171.8904	1687.1012	-1581.5656	-1170.5555	1648.1251	-1581.2797	-1271.099	1699.01	1098.1085	-1271.791	1660.0345	1099.3064	952.80939	1705.7755	1186.9987	972.8208	1733.9412	1168.9087	1026.5498	1669.2618	-1551.535	1028.1011	1630.2948	-1551.9465	-230.27388	1638.6495	-223.47067	-230.87814	1599.655	-223.24146
877	7.3	-1038.2036	214.62694	-1644.0323	-1109.4449	204.43701	-1599.3746	-1064.649	172.28735	-1624.9928	-1054.1267	262.40057	-1634.875	-1352.6699	235.11195	1003.4774	-1281.3585	227.42059	1052.1946	-1322.5134	194.09027	1020.8314	-1284.498	287.91629	1052.6971	814.12152	187.66115	1209.3667	892.23059	178.62212	1178.8403	844.50446	145.4185	1198.2416	861.03857	292.47095	1168.2537	1115.7916	209.72829	-1401.6381	1056.3842	194.03999	-1460.1167	1094.9862	162.25351	-1423.8785	1069.6733	239.54593	-1426.3036	-1204.6959	1686.1095	-1562.8542	-1129.1575	1688.3934	-1605.95	-1173.1602	1724.3342	-1581.848	-1133.9939	1581.0803	-1603.8849	-1239.5404	1699.0493	1119.5548	-1309.4252	1698.9579	1072.0553	-1270.4636	1736.3289	1096.9764	-1245.5754	1592.7964	1110.7583	988.91614	1664.2031	1162.132	957.36218	1700.4908	1183.8502	921.95404	1662.2628	1214.9209	939.85095	1659.4302	1159.7192	999.08838	1668.4498	-1579.3859	1058.9523	1670.2196	-1518.6505	1025.0211	1708.1129	-1551.127	1059.317	1672.2001	-1585.4017	-231.38292	1638.9033	-185.79886	-228.892	1638.3451	-270.25168	-229.70192	1675.4741	-223.67606	-196.24998	1638.5066	-221.51332	-278.73074	1639.9001	-223.86446																																														-1069.6429	210.13004	-1624.3245	-1074.7445	248.78891	-1623.6417	-1321.2588	231.72408	1024.9362	-1319.9669	270.47284	1029.1627	848.0965	183.72945	1196.0885	851.73151	222.49849	1193.9098	1088.6984	202.5735	-1428.3076	1082.7241	240.88277	-1432.5159	-1171.8795	1687.1017	-1581.5764	-1170.5389	1648.1257	-1581.2921	-1271.1556	1699.0079	1098.0664	-1271.8784	1660.0314	1099.205	952.77356	1705.7676	1187.0084	972.7464	1733.9613	1168.9196	1026.5613	1669.2621	-1551.5129	1028.1062	1630.2946	-1551.9001	-230.27242	1638.6544	-223.44949	-230.8766	1599.6599	-223.20956
878	7.3083333	-1038.1877	214.56429	-1643.9685	-1109.5673	204.04376	-1599.4573	-1063.6331	172.80443	-1625.6982	-1054.1145	262.34644	-1634.8279	-1352.5502	235.14699	1003.5808	-1281.3136	227.43227	1052.1671	-1322.5016	193.99208	1020.9124	-1284.4758	287.95273	1052.6074	814.08966	187.69415	1209.4275	892.32861	178.65425	1178.8884	844.48547	145.41162	1198.2833	860.99713	292.45877	1168.3151	1115.8384	210.00798	-1401.7872	1056.356	194.03107	-1460.1443	1094.9589	162.16956	-1423.8407	1069.6639	239.55949	-1426.2859	-1204.7238	1686.1293	-1562.8361	-1129.1219	1688.4109	-1605.9611	-1173.1536	1724.3372	-1581.8497	-1133.9924	1581.0826	-1603.8936	-1239.5336	1699.0214	1119.5547	-1309.4137	1698.9427	1072.0583	-1270.4303	1736.2965	1096.9586	-1245.5063	1592.6449	1110.7075	988.86212	1664.1803	1162.1257	957.3623	1700.4431	1183.9055	921.97308	1662.269	1214.8973	939.81506	1659.4294	1159.767	999.09552	1668.4503	-1579.3843	1058.9454	1670.1998	-1518.6577	1025.0155	1708.1146	-1551.1211	1059.3245	1672.1985	-1585.4011	-231.38643	1638.9091	-185.79474	-228.89272	1638.3553	-270.24658	-229.70282	1675.4644	-223.68193	-196.20618	1638.5326	-221.48413	-278.78235	1639.9519	-223.89825																																														-1068.6669	210.07199	-1624.962	-1073.8862	248.71362	-1624.1989	-1321.183	231.75	1024.9745	-1319.8296	270.5029	1029.1437	848.0871	183.76599	1196.1571	851.72784	222.53618	1194.0081	1088.6274	202.69916	-1428.4833	1082.6462	240.98738	-1432.8691	-1171.8733	1687.1206	-1581.5746	-1170.5328	1648.1448	-1581.2864	-1271.1436	1698.9857	1098.0697	-1271.8887	1660.0101	1099.2305	952.77087	1705.7288	1187.0801	972.75879	1733.9343	1169.0264	1026.5568	1669.2531	-1551.5206	1028.1024	1630.2858	-1551.9213	-230.27431	1638.6621	-223.4575	-230.87984	1599.6676	-223.21971
879	7.3166667	-1038.176	214.5683	-1643.9741	-1109.4545	204.39374	-1599.3795	-1063.7628	172.25682	-1625.3821	-1054.1469	262.34781	-1634.8523	-1352.5182	235.13667	1003.5559	-1281.2949	227.52019	1052.147	-1322.5337	193.98631	1020.9248	-1284.3469	288.0271	1052.5848	814.12518	187.72685	1209.3927	892.27679	178.66441	1178.8402	844.52087	145.50171	1198.296	861.03741	292.53827	1168.3812	1115.7863	209.73534	-1401.6277	1056.3367	194.14359	-1460.2462	1094.952	162.16203	-1423.7896	1069.6774	239.55823	-1426.2766	-1204.7067	1686.1254	-1562.8458	-1129.1316	1688.3988	-1605.9519	-1173.1512	1724.3323	-1581.8525	-1133.9933	1581.0784	-1603.8876	-1239.2941	1698.7931	1119.4569	-1309.376	1698.8743	1072.0198	-1270.3848	1736.2272	1096.9429	-1245.5563	1592.7224	1110.7217	988.86194	1664.1815	1162.1354	957.30463	1700.4907	1183.8749	922.05896	1662.2686	1214.9246	939.85645	1659.4445	1159.7168	999.08002	1668.4502	-1579.394	1058.948	1670.1935	-1518.6598	1025.0021	1708.0947	-1551.1207	1059.3242	1672.1957	-1585.4017	-231.38512	1638.9081	-185.79514	-228.88673	1638.3485	-270.24316	-229.69978	1675.4728	-223.68874	-196.30814	1638.4833	-221.5204	-278.62863	1639.7861	-223.87003																																														-1068.8165	210.19455	-1624.8042	-1073.9659	248.84863	-1624.2153	-1321.2125	231.78889	1024.9137	-1319.8578	270.55017	1029.0038	848.1051	183.78654	1196.1085	851.73462	222.55406	1193.8934	1088.7588	202.64693	-1428.277	1082.8966	240.9691	-1432.5249	-1171.8724	1687.113	-1581.5735	-1170.5333	1648.1372	-1581.2811	-1271.0964	1698.8297	1097.9303	-1271.8383	1659.8505	1098.9596	952.78131	1705.6949	1186.9907	972.72314	1733.8831	1168.859	1026.5475	1669.25	-1551.5292	1028.0977	1630.2828	-1551.9387	-230.27074	1638.6584	-223.46167	-230.87552	1599.6638	-223.22118
880	7.325	-1038.1942	214.58334	-1643.9801	-1109.5446	204.05901	-1599.4467	-1064.6763	172.3056	-1624.9784	-1054.1478	262.34583	-1634.8523	-1352.4816	235.20209	1003.4008	-1281.4056	227.37134	1052.304	-1322.5372	193.99559	1020.8838	-1284.4664	287.94846	1052.639	814.1098	187.74432	1209.4054	892.2746	178.64145	1178.9148	844.56641	145.39758	1198.3539	860.99908	292.42972	1168.2792	1115.7999	209.74516	-1401.6603	1056.3347	194.11374	-1460.2736	1094.9673	162.13814	-1423.7959	1069.6686	239.51089	-1426.2576	-1204.7114	1686.1227	-1562.8345	-1129.1451	1688.3851	-1605.9417	-1173.1542	1724.3474	-1581.8585	-1133.9989	1581.0773	-1603.8844	-1239.5839	1699.1045	1119.5676	-1309.3605	1698.8285	1072.009	-1270.3915	1736.2467	1096.9445	-1245.5781	1592.8036	1110.7633	988.89673	1664.2036	1162.1388	957.422	1700.4785	1183.8846	922.04431	1662.2628	1214.9111	939.8551	1659.4465	1159.7693	999.08398	1668.4559	-1579.3965	1058.9458	1670.1991	-1518.6619	1025.0063	1708.0916	-1551.1239	1059.3162	1672.1921	-1585.407	-231.39107	1638.9001	-185.79216	-228.89973	1638.337	-270.23932	-229.71021	1675.4762	-223.68954	-196.24467	1638.5122	-221.51224	-278.58154	1639.7561	-223.87573																																														-1069.7803	209.92432	-1624.2655	-1075.0226	248.56343	-1623.5333	-1321.1708	231.75243	1024.9438	-1319.7684	270.50378	1029.111	848.16504	183.77832	1196.121	851.7998	222.54303	1193.8657	1088.7666	202.63899	-1428.3063	1082.8999	240.95834	-1432.5737	-1171.8729	1687.1058	-1581.5673	-1170.5322	1648.1299	-1581.2626	-1271.047	1698.98	1098.1228	-1271.7327	1660.0055	1099.3551	952.87054	1705.7241	1187.0292	972.86169	1733.9093	1168.9474	1026.5494	1669.2556	-1551.5304	1028.098	1630.2886	-1551.9382	-230.27977	1638.6489	-223.46077	-230.88289	1599.6543	-223.21854
881	7.3333333	-1038.2036	214.65636	-1644.0383	-1109.4674	204.44391	-1599.3768	-1063.7491	173.00787	-1625.6984	-1054.136	262.36392	-1634.9126	-1352.626	235.20403	1003.4384	-1281.3615	227.39757	1052.2655	-1322.5247	194.00394	1020.9047	-1284.4739	287.91409	1052.6852	814.08197	187.76303	1209.4302	892.27979	178.68799	1178.8865	844.57532	145.32942	1198.4083	861.19977	292.67157	1169.1412	1115.7858	209.71078	-1401.6804	1056.3398	194.08876	-1460.2513	1095.001	162.25444	-1423.812	1069.6588	239.53108	-1426.264	-1204.7339	1686.1252	-1562.8187	-1129.1377	1688.3634	-1605.9166	-1173.1505	1724.3562	-1581.8615	-1133.9811	1581.0889	-1603.9081	-1239.5654	1699.0765	1119.5616	-1309.3463	1698.802	1071.9945	-1270.4301	1736.3015	1096.9639	-1245.5204	1592.7195	1110.7301	988.89331	1664.222	1162.1416	957.40918	1700.4309	1183.9016	921.96124	1662.2478	1214.9257	939.81091	1659.4266	1159.7443	999.0802	1668.4552	-1579.3906	1058.9478	1670.1914	-1518.6626	1025.0016	1708.0842	-1551.1223	1059.3221	1672.192	-1585.4038	-231.38322	1638.8976	-185.79526	-228.89796	1638.3477	-270.24246	-229.70509	1675.4712	-223.69385	-196.29468	1638.4666	-221.53409	-278.76575	1639.9296	-223.88579																																														-1068.6344	210.29546	-1624.9669	-1073.6997	248.95767	-1624.2089	-1321.1825	231.75963	1024.9819	-1319.8049	270.50998	1029.1667	848.14868	183.80951	1196.1238	851.74854	222.57475	1193.8224	1088.7925	202.61713	-1428.2762	1082.8984	240.93549	-1432.5144	-1171.8719	1687.0981	-1581.5535	-1170.5343	1648.1224	-1581.2313	-1271.0549	1698.9525	1098.0962	-1271.7072	1659.9758	1099.278	952.77515	1705.7603	1187.1045	972.75745	1733.9774	1169.0629	1026.5437	1669.2516	-1551.5322	1028.0912	1630.2845	-1551.9438	-230.27443	1638.6521	-223.47083	-230.87741	1599.6576	-223.23462
